<?xml version="1.0" encoding="UTF-8"?>
<!-- Print on A4 portrait at 100% scale. Marker size: 25 mm; center distances: 175 mm x 262 mm. -->
<svg xmlns="http://www.w3.org/2000/svg" width="210mm" height="297mm" viewBox="0 0 210 297">
  <defs>
    <!-- AprilTag-36h11, ID 0; 8 cells including the required black border. -->
    <g id="apriltag-36h11-0">
      <rect width="25" height="25" fill="#000000"/>
      <g fill="#ffffff">
        <rect x="9.375" y="3.125" width="3.125" height="3.125"/>
        <rect x="6.25" y="6.25" width="3.125" height="3.125"/>
        <rect x="9.375" y="6.25" width="3.125" height="3.125"/>
        <rect x="15.625" y="6.25" width="3.125" height="3.125"/>
        <rect x="12.5" y="9.375" width="3.125" height="3.125"/>
        <rect x="18.75" y="9.375" width="3.125" height="3.125"/>
        <rect x="12.5" y="12.5" width="3.125" height="3.125"/>
        <rect x="15.625" y="12.5" width="3.125" height="3.125"/>
        <rect x="3.125" y="15.625" width="3.125" height="3.125"/>
        <rect x="9.375" y="15.625" width="3.125" height="3.125"/>
        <rect x="12.5" y="15.625" width="3.125" height="3.125"/>
        <rect x="15.625" y="15.625" width="3.125" height="3.125"/>
        <rect x="3.125" y="18.75" width="3.125" height="3.125"/>
        <rect x="9.375" y="18.75" width="3.125" height="3.125"/>
        <rect x="15.625" y="18.75" width="3.125" height="3.125"/>
        <rect x="18.75" y="18.75" width="3.125" height="3.125"/>
      </g>
    </g>
  </defs>
  <rect width="210" height="297" fill="#ffffff"/>
  <!-- Markers sit 5 mm inside each A4 corner. -->
  <use href="#apriltag-36h11-0" x="5" y="5"/>
  <use href="#apriltag-36h11-0" x="180" y="5"/>
  <use href="#apriltag-36h11-0" x="5" y="267"/>
  <use href="#apriltag-36h11-0" x="180" y="267"/>
</svg>
